<?xml version="1.0" encoding="utf-8"?>
<!-- Generator: Adobe Illustrator 21.0.0, SVG Export Plug-In . SVG Version: 6.00 Build 0)  -->
<svg version="1.1" id="Layer_1" xmlns="http://www.w3.org/2000/svg" xmlns:xlink="http://www.w3.org/1999/xlink" x="0px" y="0px"
	 viewBox="0 0 40.5 59.4" style="enable-background:new 0 0 40.5 59.4;" xml:space="preserve">
<style type="text/css">
	.st0{fill:#d2d2d2;}
</style>
<g id="address-pin-white-icon">
	<path id="Forma_1" class="st0" d="M34.6,6.1C27-1.8,14.4-2.1,6.5,5.6C6.3,5.7,6.1,5.9,5.9,6.1C-1.2,14.3-2,26.3,4,35.3l16.2,24.1
		l16.2-24C42.5,26.3,41.7,14.3,34.6,6.1z M20.4,28.2c-4.2,0.1-7.7-3.2-7.8-7.4s3.2-7.7,7.4-7.8s7.7,3.2,7.8,7.4c0,0.1,0,0.1,0,0.2
		C27.9,24.7,24.6,28.1,20.4,28.2L20.4,28.2z"/>
</g>
</svg>
