<svg id="admin-icon-flat" xmlns="http://www.w3.org/2000/svg" width="153.093" height="135" viewBox="0 0 51.031 45">
  <metadata><?xpacket begin="﻿" id="W5M0MpCehiHzreSzNTczkc9d"?>
<x:xmpmeta xmlns:x="adobe:ns:meta/" x:xmptk="Adobe XMP Core 5.6-c138 79.159824, 2016/09/14-01:09:01        ">
   <rdf:RDF xmlns:rdf="http://www.w3.org/1999/02/22-rdf-syntax-ns#">
      <rdf:Description rdf:about=""/>
   </rdf:RDF>
</x:xmpmeta>
                                                                                                    
                                                                                                    
                                                                                                    
                                                                                                    
                                                                                                    
                                                                                                    
                                                                                                    
                                                                                                    
                                                                                                    
                                                                                                    
                                                                                                    
                                                                                                    
                                                                                                    
                                                                                                    
                                                                                                    
                                                                                                    
                                                                                                    
                                                                                                    
                                                                                                    
                                                                                                    
                           
<?xpacket end="w"?></metadata>
<defs>
    <style>
      .cls-1 {
        fill: #a2d2a4;
        fill-rule: evenodd;
      }
    </style>
  </defs>
  <path class="cls-1" d="M626.9,90.519l-2.022-7.074a1.056,1.056,0,0,0-.24-0.388,11.828,11.828,0,0,0-8.231-7.8l-0.578-.1a2.4,2.4,0,0,0-2.454.775c-2.118,2.423-4.814,2.617-7.654,2.617s-5.535-.194-7.653-2.617a2.4,2.4,0,0,0-2.455-.775l-0.577.145A11.952,11.952,0,0,0,588,80.488h-6.065a0.1,0.1,0,0,1-.1-0.048,1.11,1.11,0,0,1-.048-0.194l1.252-4.506c1.107-3.537,3.224-4.6,7.364-5.669a0.929,0.929,0,0,0,.433-0.242,5.465,5.465,0,0,0,1.107.727,0.712,0.712,0,0,0,.433.1,1.015,1.015,0,0,0,.867-0.533,0.975,0.975,0,0,0-.433-1.308c-2.215-1.163-3.8-4.458-3.8-7.85a5.483,5.483,0,0,1,5.439-5.475,6.078,6.078,0,0,1,1.637.242,11.134,11.134,0,0,0-.819,4.216c0,8.286,4.958,15.263,10.83,15.263,5.776,0,10.879-7.123,10.879-15.263A10.846,10.846,0,0,0,597,53.983a7.629,7.629,0,0,0-2.551-.436,7.352,7.352,0,0,0-6.209,3.489,1.006,1.006,0,0,0-.289-0.194,4.582,4.582,0,0,0-2.262-.533,4.793,4.793,0,0,0-4.862,4.846,8.393,8.393,0,0,0,1.107,4.167c-2.214.582-4.187,1.454-5.1,4.409l-0.77,2.81a1.629,1.629,0,0,0,1.589,2.084h3.706c-0.048.194-.145,0.388-0.193,0.582l-1.251,4.555A1.983,1.983,0,0,0,580.3,81.6a1.96,1.96,0,0,0,1.636.824h5.1a8.242,8.242,0,0,0-.337,1.018l-2.022,7.123a2.8,2.8,0,0,0,.481,2.374,2.686,2.686,0,0,0,2.118,1.066H624.3a2.618,2.618,0,0,0,2.118-1.066A2.713,2.713,0,0,0,626.9,90.519ZM598.159,55.873a0.652,0.652,0,0,0,.145-0.194c0.048-.049.048-0.145,0.1-0.194a8.779,8.779,0,0,1,7.7-4.555,8.981,8.981,0,0,1,8.52,6.3,4.517,4.517,0,0,1-4.525-1.793,0.937,0.937,0,0,0-1.347-.194,0.817,0.817,0,0,0-.337.485c-0.048.048-.048,0.1-0.1,0.145-1.348,2.762-5.873,3.925-11.023,2.907A10.125,10.125,0,0,1,598.159,55.873Zm2.7,5.185c3.851,0,7.027-1.211,8.664-3.489a6.408,6.408,0,0,0,4.284,1.648,5.106,5.106,0,0,0,1.2-.145,4.745,4.745,0,0,1,.048.824c0,7.123-4.187,13.374-8.953,13.374-4.572,0-8.567-5.766-8.9-12.55A19.39,19.39,0,0,0,600.855,61.058ZM578.04,72.687l0.674-2.423c0.577-1.987,1.78-2.568,4.187-3.15a0.96,0.96,0,0,0,.385-0.194,3.777,3.777,0,0,0,.722.484,0.712,0.712,0,0,0,.433.1,1.015,1.015,0,0,0,.867-0.533,1,1,0,0,0-.385-1.308,5.256,5.256,0,0,1-2.166-4.506,2.927,2.927,0,0,1,2.936-2.956,2.713,2.713,0,0,1,1.4.339,1.12,1.12,0,0,0,.385.1,7.351,7.351,0,0,0-.385,2.326,12.438,12.438,0,0,0,2.358,7.365c-2.888.727-5.439,1.7-7.123,4.361H578.04Zm46.882,19.091a0.847,0.847,0,0,1-.626.291H587.281a0.843,0.843,0,0,1-.625-0.291,0.884,0.884,0,0,1-.145-0.678l2.022-7.074a9.863,9.863,0,0,1,6.979-6.832l0.578-.145a0.611,0.611,0,0,1,.529.194c2.647,3.053,5.921,3.3,9.1,3.3s6.45-.242,9.1-3.3a0.615,0.615,0,0,1,.577-0.194l0.578,0.145a9.949,9.949,0,0,1,6.979,6.832l0.867,3a0.783,0.783,0,0,0,.192.339l1.059,3.683A0.963,0.963,0,0,1,624.922,91.779Z" transform="translate(-575.969 -49)"/>
</svg>
