<svg xmlns="http://www.w3.org/2000/svg" width="46" height="51" viewBox="0 0 68 66">
  <metadata><?xpacket begin="﻿" id="W5M0MpCehiHzreSzNTczkc9d"?>
<x:xmpmeta xmlns:x="adobe:ns:meta/" x:xmptk="Adobe XMP Core 5.6-c138 79.159824, 2016/09/14-01:09:01        ">
   <rdf:RDF xmlns:rdf="http://www.w3.org/1999/02/22-rdf-syntax-ns#">
      <rdf:Description rdf:about=""/>
   </rdf:RDF>
</x:xmpmeta>
                                                                                                    
                                                                                                    
                                                                                                    
                                                                                                    
                                                                                                    
                                                                                                    
                                                                                                    
                                                                                                    
                                                                                                    
                                                                                                    
                                                                                                    
                                                                                                    
                                                                                                    
                                                                                                    
                                                                                                    
                                                                                                    
                                                                                                    
                                                                                                    
                                                                                                    
                                                                                                    
                           
<?xpacket end="w"?></metadata>
<defs>
    <style>
      .cls-1 {
        fill: #fff;
        fill-rule: evenodd;
      }
    </style>
  </defs>
  <g id="designer-icon">
    <path class="cls-1" d="M520.1,227.44l-4.712,3.52-4.738,11.025h-3.81l-1.5-3.236h0.977a3.229,3.229,0,0,0,3.243-3.22v-3.251h1.62v-4.853h-4.863v4.853h1.621v3.251a1.608,1.608,0,0,1-1.621,1.6H504.6l-2.072-4.473,2.482-1.234-8.126-3.473-1.91,6.672a7.293,7.293,0,1,0-11.343,6.142v1.22h-1.962l-0.127.663a18.185,18.185,0,0,0-.109,6.225l-5.529,9.836,6.106,1.392V270.3h8.105v7.28h19.452V266.3a21.068,21.068,0,0,0,8.909-17.317l0-2.95a18.8,18.8,0,0,0-.31-3.382l-0.12-.67h-1.592l3.648-8.721V227.44h0Zm-12.158,3.236v-1.619h1.621v1.619h-1.621Zm-2.887,11.309H501.98l-1.473-3.236h3.051Zm-7.123-11.822,3.222,1.378-0.761.372,2.417,5.218h-3.04l-1.975-4.326-0.726.366Zm2.268,11.822h-3.6v-1.6a1.634,1.634,0,0,1,1.621-1.634h0.51Zm-3.183-6.975L498,237.169a3.231,3.231,0,0,0-3.025,3.213v1.6h-3.243v-1.22a7.3,7.3,0,0,0,3.094-4.662Zm-15.01-.29a5.673,5.673,0,1,1,8.509,4.9l-0.4.233v2.133h-1.621V237a2.432,2.432,0,1,0-1.622,0v4.988h-1.621v-2.133l-0.4-.234A5.679,5.679,0,0,1,482.007,234.72Zm5.673,0.809a0.809,0.809,0,1,1,.811-0.809A0.81,0.81,0,0,1,487.68,235.529Zm29,8.074a16.884,16.884,0,0,1,.177,2.426l0,2.956a19.685,19.685,0,0,1-8.559,16.232l-0.357.242v10.5H491.733v-7.279h-8.106v-9.867l-5.252-1.2,4.744-8.442-0.046-.29a16.683,16.683,0,0,1-.057-5.28h33.663Zm-1.983-1.618h-2.283l4.04-9.4,1.8,0.893Zm3.783-10.192-0.9-.448,0.9-.669v1.117ZM489.3,248.456a2.271,2.271,0,0,1-2.432-2.427h-1.621a4.053,4.053,0,0,0,8.106,0h-1.621A2.271,2.271,0,0,1,489.3,248.456Z" transform="translate(-464 -219)"/>
  </g>
</svg>
