<svg xmlns="http://www.w3.org/2000/svg" width="58" height="44" viewBox="0 0 68 66">
  <metadata><?xpacket begin="﻿" id="W5M0MpCehiHzreSzNTczkc9d"?>
<x:xmpmeta xmlns:x="adobe:ns:meta/" x:xmptk="Adobe XMP Core 5.6-c138 79.159824, 2016/09/14-01:09:01        ">
   <rdf:RDF xmlns:rdf="http://www.w3.org/1999/02/22-rdf-syntax-ns#">
      <rdf:Description rdf:about=""/>
   </rdf:RDF>
</x:xmpmeta>
                                                                                                    
                                                                                                    
                                                                                                    
                                                                                                    
                                                                                                    
                                                                                                    
                                                                                                    
                                                                                                    
                                                                                                    
                                                                                                    
                                                                                                    
                                                                                                    
                                                                                                    
                                                                                                    
                                                                                                    
                                                                                                    
                                                                                                    
                                                                                                    
                                                                                                    
                                                                                                    
                           
<?xpacket end="w"?></metadata>
<defs>
    <style>
      .cls-1 {
        fill: #fff;
        fill-rule: evenodd;
      }
    </style>
  </defs>
  <g id="marketing-geeks-icon">
    <path class="cls-1" d="M702.43,243.3v-10.38a1.414,1.414,0,0,0-.776-1.27,1.458,1.458,0,0,0-1.494.094c-10.325,7.136-16.252,8.053-20.262,8.053H668.432a8.24,8.24,0,0,0-8.232,8.229v3.056a8.24,8.24,0,0,0,8.232,8.229h5.5l5.974,14.471a1.438,1.438,0,0,0,1.328.894,1.546,1.546,0,0,0,.553-0.106,1.446,1.446,0,0,0,.788-1.881l-5.527-13.378h2.834c13.971,0,19.686,7.394,19.945,7.735a1.437,1.437,0,0,0,1.152.588,1.4,1.4,0,0,0,.447-0.071,1.439,1.439,0,0,0,.988-1.363V255.828A6.431,6.431,0,0,0,702.43,243.3Zm-39.349,7.782v-3.056a5.354,5.354,0,0,1,5.351-5.349h5.033v13.754h-5.033A5.354,5.354,0,0,1,663.081,251.079Zm36.468,11.65c-3.2-2.633-9.479-6.3-19.663-6.3h-3.551V242.674h3.551c4.116,0,10.019-.847,19.663-7.053v27.108Zm2.881-9.933v-6.478A3.544,3.544,0,0,1,702.43,252.8Zm13.924-4.679h-5.633a1.446,1.446,0,1,0,0,2.892h5.633A1.446,1.446,0,1,0,716.354,248.117Zm-7.633-3.033a1.449,1.449,0,0,0,1.341.917,1.7,1.7,0,0,0,.529-0.094l5.457-2.14a1.441,1.441,0,1,0-1.059-2.68l-5.456,2.139A1.443,1.443,0,0,0,708.721,245.084Zm7.327,10.251-5.457-2.14a1.441,1.441,0,1,0-1.058,2.68l5.456,2.14a1.414,1.414,0,0,0,.53.094,1.446,1.446,0,0,0,1.34-.917A1.43,1.43,0,0,0,716.048,255.335Z" transform="translate(-653 -219)"/>
  </g>
</svg>
