<svg xmlns="http://www.w3.org/2000/svg" width="81" height="135" viewBox="0 0 27 45">
  <metadata><?xpacket begin="﻿" id="W5M0MpCehiHzreSzNTczkc9d"?>
<x:xmpmeta xmlns:x="adobe:ns:meta/" x:xmptk="Adobe XMP Core 5.6-c138 79.159824, 2016/09/14-01:09:01        ">
   <rdf:RDF xmlns:rdf="http://www.w3.org/1999/02/22-rdf-syntax-ns#">
      <rdf:Description rdf:about=""/>
   </rdf:RDF>
</x:xmpmeta>
                                                                                                    
                                                                                                    
                                                                                                    
                                                                                                    
                                                                                                    
                                                                                                    
                                                                                                    
                                                                                                    
                                                                                                    
                                                                                                    
                                                                                                    
                                                                                                    
                                                                                                    
                                                                                                    
                                                                                                    
                                                                                                    
                                                                                                    
                                                                                                    
                                                                                                    
                                                                                                    
                           
<?xpacket end="w"?></metadata>
<defs>
    <style>
      .cls-1 {
        fill: #e2e2e2;
        fill-rule: evenodd;
      }
    </style>
  </defs>
  <g id="mobile-portfolio-icon-grey">
    <path class="cls-1" d="M1527.9,461h-16.8a5.121,5.121,0,0,1-5.1-5.126V421.122a5.121,5.121,0,0,1,5.1-5.127h16.8a5.121,5.121,0,0,1,5.1,5.127v34.756A5.121,5.121,0,0,1,1527.9,461Zm-16.8-43.014a3.129,3.129,0,0,0-3.12,3.132v34.756a3.129,3.129,0,0,0,3.12,3.131h16.8a3.129,3.129,0,0,0,3.12-3.131V421.122a3.129,3.129,0,0,0-3.12-3.132h-16.8ZM1532,425h-25v-2h25v2Zm0.01,28h-25.02V451h25.02V453ZM1522,457h-4v-2h4v2Z" transform="translate(-1506 -416)"/>
  </g>
</svg>
