<?xml version="1.0" encoding="utf-8"?>
<!-- Generator: Adobe Illustrator 21.0.0, SVG Export Plug-In . SVG Version: 6.00 Build 0)  -->
<svg version="1.1" id="Layer_1" xmlns="http://www.w3.org/2000/svg" xmlns:xlink="http://www.w3.org/1999/xlink" x="0px" y="0px"
	 viewBox="0 0 29.9 54" style="enable-background:new 0 0 29.9 54;" xml:space="preserve">
<style type="text/css">
	.st0{fill:#d2d2d2;}
</style>
<g id="mobile-white-icon">
	<path id="Forma_1" class="st0" d="M26.5,0h-23C1.5,0.1,0,1.7,0,3.6v46.7c0,2,1.5,3.6,3.5,3.6h23c2-0.1,3.5-1.7,3.5-3.6V3.6
		C30,1.7,28.4,0.1,26.5,0z M11.3,2.6h7.4c0.2,0,0.5,0.2,0.5,0.4s-0.2,0.4-0.5,0.4h-7.4c-0.3,0-0.5-0.2-0.5-0.5S11,2.6,11.3,2.6
		L11.3,2.6z M15,52.2c-1,0-1.9-0.7-1.9-1.7c0-1,0.7-1.9,1.7-1.9c1,0,1.9,0.7,1.9,1.7c0,0,0,0.1,0,0.1C16.7,51.3,16,52.2,15,52.2z
		 M27.5,47.3H2.4V5.8h25.1V47.3z"/>
</g>
</svg>
