<?xml version="1.0" encoding="utf-8"?>
<!-- Generator: Adobe Illustrator 21.0.0, SVG Export Plug-In . SVG Version: 6.00 Build 0)  -->
<svg version="1.1" id="Layer_1" xmlns="http://www.w3.org/2000/svg" xmlns:xlink="http://www.w3.org/1999/xlink" x="0px" y="0px"
	 viewBox="0 0 113.1 50.8" style="enable-background:new 0 0 113.1 50.8;" xml:space="preserve">
<style type="text/css">
	.st0{fill:#0F2B35;}
</style>
<g id="more-grey-icon">
	<path id="more" class="st0" d="M111.1,26.4H1.5c-0.8,0-1.5-0.7-1.5-1.5s0.7-1.5,1.5-1.5h109.6c0.8,0,1.5,0.7,1.5,1.5
		S111.9,26.4,111.1,26.4z M86.4,50.8c-0.8,0-1.5-0.7-1.5-1.5c0-0.4,0.2-0.8,0.4-1.1l23.6-23.6L86.8,2.6c-0.6-0.6-0.6-1.5,0-2.1
		c0.6-0.6,1.5-0.6,2.1,0l0,0l24.2,24.2L87.4,50.4C87.1,50.6,86.8,50.8,86.4,50.8z"/>
</g>
</svg>
