<?xml version="1.0" encoding="utf-8"?>
<!-- Generator: Adobe Illustrator 21.0.0, SVG Export Plug-In . SVG Version: 6.00 Build 0)  -->
<svg version="1.1" id="Layer_1" xmlns="http://www.w3.org/2000/svg" xmlns:xlink="http://www.w3.org/1999/xlink" x="0px" y="0px"
	 viewBox="0 0 52 52" style="enable-background:new 0 0 52 52;" xml:space="preserve">
<style type="text/css">
	.st0{fill:#FFFFFF;}
</style>
<g id="phone-white-icon">
	<path id="Forma_1" class="st0" d="M52,41.1c0.1,0.8-0.2,1.6-0.8,2.2l-7.3,7.3c-0.4,0.4-0.8,0.7-1.3,0.9c-0.5,0.2-1,0.4-1.6,0.5
		c0,0-0.1,0-0.3,0s-0.4,0-0.7,0c-3.1-0.1-6.2-0.8-9.1-2.1c-2.7-1.2-5.3-2.6-7.7-4.2c-3.3-2.2-6.4-4.8-9.1-7.7
		c-2.3-2.3-4.5-4.7-6.4-7.3c-1.5-2-2.9-4.2-4.1-6.4c-0.9-1.7-1.7-3.5-2.3-5.3c-0.5-1.3-0.8-2.7-1-4.1C0.1,13.9,0,13,0,12.1
		c0-0.7,0.1-1,0.1-1.1c0.1-0.5,0.3-1.1,0.5-1.6c0.2-0.5,0.5-0.9,0.9-1.3l7.3-7.3C9.3,0.3,9.9,0,10.6,0c0.5,0,0.9,0.1,1.3,0.4
		c0.4,0.3,0.7,0.6,0.9,1l5.9,11.2c0.3,0.6,0.4,1.3,0.3,1.9c-0.1,0.7-0.5,1.3-0.9,1.8L15.3,19c-0.1,0.1-0.2,0.2-0.2,0.4
		c0,0.1-0.1,0.3-0.1,0.4c0.2,0.9,0.5,1.8,1,2.6c0.6,1.1,1.3,2.2,2,3.2c1.2,1.6,2.5,3,3.9,4.4c1.4,1.4,2.8,2.7,4.4,3.9
		c1,0.8,2.1,1.5,3.2,2.1c0.6,0.3,1.3,0.6,2,0.8l0.7,0.1c0.1,0,0.2,0,0.4-0.1c0.1,0,0.3-0.1,0.4-0.2l3.1-3.2c0.6-0.6,1.5-0.9,2.3-0.9
		c0.5,0,1,0.1,1.5,0.3H40l10.6,6.3C51.3,39.6,51.8,40.3,52,41.1z"/>
</g>
</svg>
