<svg xmlns="http://www.w3.org/2000/svg" xmlns:xlink="http://www.w3.org/1999/xlink" width="204" height="204" viewBox="0 0 68 68">
  <metadata><?xpacket begin="﻿" id="W5M0MpCehiHzreSzNTczkc9d"?>
<x:xmpmeta xmlns:x="adobe:ns:meta/" x:xmptk="Adobe XMP Core 5.6-c138 79.159824, 2016/09/14-01:09:01        ">
   <rdf:RDF xmlns:rdf="http://www.w3.org/1999/02/22-rdf-syntax-ns#">
      <rdf:Description rdf:about=""/>
   </rdf:RDF>
</x:xmpmeta>
                                                                                                    
                                                                                                    
                                                                                                    
                                                                                                    
                                                                                                    
                                                                                                    
                                                                                                    
                                                                                                    
                                                                                                    
                                                                                                    
                                                                                                    
                                                                                                    
                                                                                                    
                                                                                                    
                                                                                                    
                                                                                                    
                                                                                                    
                                                                                                    
                                                                                                    
                                                                                                    
                           
<?xpacket end="w"?></metadata>
<defs>
    <style>
      .cls-1 {
        fill: #f9e3bf;
      }

      .cls-2 {
        fill: #ffa106;
        fill-rule: evenodd;
        filter: url(#filter);
      }
    </style>
    <filter id="filter" x="1024" y="409" width="42" height="59" filterUnits="userSpaceOnUse">
      <feGaussianBlur result="blur" stdDeviation="2.333" in="SourceAlpha"/>
      <feComposite result="composite"/>
      <feComposite result="composite-2"/>
      <feComposite result="composite-3"/>
      <feFlood result="flood" flood-color="#ffac23" flood-opacity="0.2"/>
      <feComposite result="composite-4" operator="in" in2="composite-3"/>
      <feBlend result="blend" in2="SourceGraphic"/>
      <feBlend result="blend-2" in="SourceGraphic"/>
    </filter>
  </defs>
  <g id="service-nativeapp-icon">
    <circle class="cls-1" cx="35" cy="27" r="4"/>
    <path class="cls-2" d="M1052.95,460.567h-16.9a5.152,5.152,0,0,1-5.15-5.141V420.573a5.151,5.151,0,0,1,5.15-5.14h16.9a5.151,5.151,0,0,1,5.15,5.14v34.853A5.152,5.152,0,0,1,1052.95,460.567Zm-16.9-43.134a3.146,3.146,0,0,0-3.15,3.14v34.853a3.146,3.146,0,0,0,3.15,3.14h16.9a3.146,3.146,0,0,0,3.15-3.14V420.573a3.146,3.146,0,0,0-3.15-3.14h-16.9Zm21.13,6.556h-25.36v-2h25.36v2Zm-12.68,13.63a5.659,5.659,0,1,1,5.66-5.658A5.666,5.666,0,0,1,1044.5,437.619Zm0-9.317a3.659,3.659,0,1,0,3.66,3.659A3.663,3.663,0,0,0,1044.5,428.3Zm3.97,15.529h-7.94v-2h7.94v2Zm4.83,4.313h-17.6v-2h17.6v2Zm3.8,4.831h-25.2v-2h25.2v2Zm-10.62,3.8h-3.96v-2h3.96v2Z" transform="translate(-1010 -405)"/>
  </g>
</svg>
