<svg xmlns="http://www.w3.org/2000/svg" xmlns:xlink="http://www.w3.org/1999/xlink" width="207" height="204" viewBox="0 0 69 68">
  <metadata><?xpacket begin="﻿" id="W5M0MpCehiHzreSzNTczkc9d"?>
<x:xmpmeta xmlns:x="adobe:ns:meta/" x:xmptk="Adobe XMP Core 5.6-c138 79.159824, 2016/09/14-01:09:01        ">
   <rdf:RDF xmlns:rdf="http://www.w3.org/1999/02/22-rdf-syntax-ns#">
      <rdf:Description rdf:about=""/>
   </rdf:RDF>
</x:xmpmeta>
                                                                                                    
                                                                                                    
                                                                                                    
                                                                                                    
                                                                                                    
                                                                                                    
                                                                                                    
                                                                                                    
                                                                                                    
                                                                                                    
                                                                                                    
                                                                                                    
                                                                                                    
                                                                                                    
                                                                                                    
                                                                                                    
                                                                                                    
                                                                                                    
                                                                                                    
                                                                                                    
                           
<?xpacket end="w"?></metadata>
<defs>
    <style>
      .cls-1 {
        fill: #bbe1e9;
      }

      .cls-2 {
        fill: #25a9c6;
        fill-rule: evenodd;
        filter: url(#filter);
      }
    </style>
    <filter id="filter" x="1098" y="412" width="60" height="55" filterUnits="userSpaceOnUse">
      <feGaussianBlur result="blur" stdDeviation="2.333" in="SourceAlpha"/>
      <feComposite result="composite"/>
      <feComposite result="composite-2"/>
      <feComposite result="composite-3"/>
      <feFlood result="flood" flood-color="#13b0d2" flood-opacity="0.2"/>
      <feComposite result="composite-4" operator="in" in2="composite-3"/>
      <feBlend result="blend" in2="SourceGraphic"/>
      <feBlend result="blend-2" in="SourceGraphic"/>
    </filter>
  </defs>
  <g id="service-ux-ui-icon">
    <rect class="cls-1" x="19" y="29" width="11" height="15"/>
    <path class="cls-2" d="M1150.99,431.492H1104V418.821h46.99v12.671Zm-44.99-2h42.99v-8.671H1106v8.671Zm44.99,29.687H1104V435.971h2v21.207h42.99V435.971h2v23.208Zm-16.57-22.5h-9.23v-2h9.23v2Zm8.65,6.056h-17.3v-2h17.3v2Zm-5.19,6.345H1124.9v-2h12.98v2Zm-14.86.578h-12.67V434.4h12.67v15.267Zm-10.67-2h8.67V436.394h-8.67v11.267Zm1.44-20.5h-4.59v-4.308h4.59v4.308Zm-2.59-2h0.59v-0.308h-0.59v0.308Zm7.21,2h-4.6v-4.308h4.6v4.308Zm-2.6-2h0.6v-0.308h-0.6v0.308Zm7.21,2h-4.6v-4.308h4.6v4.308Zm-2.6-2h0.6v-0.308h-0.6v0.308Z" transform="translate(-1092 -405)"/>
  </g>
</svg>
