<?xml version="1.0" encoding="utf-8"?>
<!-- Generator: Adobe Illustrator 21.0.0, SVG Export Plug-In . SVG Version: 6.00 Build 0)  -->
<svg version="1.1" id="Layer_1" xmlns="http://www.w3.org/2000/svg" xmlns:xlink="http://www.w3.org/1999/xlink" x="0px" y="0px"
	 viewBox="0 0 110.1 87.7" style="enable-background:new 0 0 110.1 87.7;" xml:space="preserve">
<style type="text/css">
	.st0{fill:#FFFFFF;}
</style>
<g id="showcase-icon">
	<path id="showcase-icon-2" class="st0" d="M109.2,30c-1.2-2.9-3.5-5.2-6.4-6.4L96,20.8c-1-0.4-2,0.1-2.4,1c-0.4,1,0.1,2,1,2.4
		l6.8,2.8c4.1,1.7,6.1,6.4,4.4,10.6L88.6,78.9c-1.7,4.1-6.4,6.1-10.5,4.4l-10.2-4.2c-1-0.4-2,0.1-2.4,1c-0.4,1,0.1,2,1,2.4l10.2,4.2
		c1.4,0.6,3,0.9,4.5,0.9c4.8,0,9.1-2.9,10.9-7.3L109.2,39C110.4,36.1,110.4,32.9,109.2,30z M94.6,43.4c1,0.4,2-0.1,2.4-1l3-7.1
		c0.4-1-0.1-2-1-2.4l-3-1.2c-1-0.4-2,0.1-2.4,1c-0.4,1,0.1,2,1,2.4l1.2,0.5L93.6,41C93.2,41.9,93.7,43,94.6,43.4
		C94.6,43.4,94.6,43.4,94.6,43.4L94.6,43.4z M66.9,75.2h11.1c6.5,0,11.8-5.3,11.8-11.8V18.7c0-6.5-5.3-11.8-11.8-11.8h-7.3
		c-1,0-1.8,0.9-1.8,1.9c0,1,0.8,1.8,1.8,1.8h7.3c4.5,0,8.1,3.6,8.1,8.1v44.7c0,4.5-3.6,8.1-8.1,8.1H66.9c-1,0-1.8,0.9-1.8,1.9
		C65.1,74.4,65.9,75.2,66.9,75.2L66.9,75.2z M77.9,28.3c1,0,1.9-0.8,1.9-1.9l0,0v-7.7c0-1-0.8-1.9-1.9-1.9l0,0h-3.2
		c-1,0-1.8,0.9-1.8,1.9c0,1,0.8,1.8,1.8,1.8h1.3v5.9C76.1,27.4,76.9,28.3,77.9,28.3L77.9,28.3z M81.1,48.6L64,7.3
		c-2.5-6-9.4-8.9-15.4-6.4L7.3,18c-6,2.5-8.9,9.4-6.4,15.4L18,74.8c1.8,4.4,6.1,7.3,10.9,7.3c1.5,0,3.1-0.3,4.5-0.9l41.3-17.1
		C80.7,61.6,83.6,54.7,81.1,48.6L81.1,48.6z M32,77.7c-1,0.4-2,0.6-3.1,0.6c-3.3,0-6.2-2-7.5-5L4.3,32c-1.7-4.1,0.3-8.8,4.4-10.6
		L50,4.3c1-0.4,2-0.6,3.1-0.6c3.3,0,6.2,2,7.5,5L77.7,50c1.7,4.1-0.3,8.8-4.4,10.6L32,77.7z M54.8,11.1c-0.4-1-1.5-1.4-2.4-1
		c0,0,0,0,0,0L11.1,27.2c-1,0.4-1.4,1.5-1,2.4l12.4,29.9c0.4,0.9,1.5,1.4,2.4,1l41.3-17.1c1-0.4,1.4-1.5,1-2.4L54.8,11.1z
		 M25.2,56.3L14.2,29.9l37.9-15.7L63,40.6L25.2,56.3z"/>
</g>
</svg>
