<?xml version="1.0" encoding="utf-8"?>
<!-- Generator: Adobe Illustrator 21.0.0, SVG Export Plug-In . SVG Version: 6.00 Build 0)  -->
<svg version="1.1" id="Layer_1" xmlns="http://www.w3.org/2000/svg" xmlns:xlink="http://www.w3.org/1999/xlink" x="0px" y="0px"
	 viewBox="0 0 182 182" style="enable-background:new 0 0 182 182;" xml:space="preserve">
<style type="text/css">
	.st0{fill:#000000;fill-opacity:0;stroke:#000000;stroke-width:2;stroke-linejoin:round;stroke-opacity:0.5;}
	.st1{fill:#000000;}
</style>
<g id="white-link-icon">
	<g id="link">
		<circle class="st0" cx="91" cy="91" r="90"/>
		<path class="st1" d="M96.7,83.8c-1,1-1.1,2.7,0,3.8c0,0,0,0,0,0c4.4,4.4,4.4,11.4,0,15.8l-22.9,22.9c-4.4,4.4-11.4,4.4-15.8,0
			l-3.4-3.4c-4.4-4.4-4.4-11.4,0-15.8l22.9-22.9c1.1-1,1.1-2.7,0.1-3.8c-1-1.1-2.7-1.1-3.8-0.1c0,0,0,0-0.1,0.1l-22.9,22.9
			c-6.5,6.4-6.5,16.9,0,23.3c0,0,0,0,0,0l3.4,3.4c6.5,6.4,16.9,6.4,23.4,0l22.9-22.9c6.4-6.5,6.4-16.9,0-23.4
			C99.5,82.7,97.8,82.7,96.7,83.8C96.8,83.8,96.7,83.8,96.7,83.8z M137.2,53.7l-3.4-3.4c-6.5-6.4-16.9-6.4-23.4,0L87.5,73.2
			c-6.4,6.5-6.4,16.9,0,23.4c1,1.1,2.7,1.1,3.8,0.1s1.1-2.7,0.1-3.8c0,0,0,0-0.1-0.1c-4.4-4.4-4.4-11.4,0-15.8l22.9-22.9
			c4.4-4.3,11.4-4.3,15.8,0l3.4,3.4c4.4,4.4,4.4,11.4,0,15.8l-22.9,22.9c-1,1-1.1,2.7,0,3.8c0,0,0,0,0,0c0.5,0.5,1.2,0.8,1.9,0.8
			c0.7,0,1.4-0.3,1.9-0.8l22.9-22.9C143.6,70.7,143.6,60.2,137.2,53.7C137.2,53.7,137.2,53.7,137.2,53.7z"/>
	</g>
</g>
</svg>
