<svg xmlns="http://www.w3.org/2000/svg" width="204" height="204" viewBox="0 0 68 68">
  <metadata><?xpacket begin="﻿" id="W5M0MpCehiHzreSzNTczkc9d"?>
<x:xmpmeta xmlns:x="adobe:ns:meta/" x:xmptk="Adobe XMP Core 5.6-c138 79.159824, 2016/09/14-01:09:01        ">
   <rdf:RDF xmlns:rdf="http://www.w3.org/1999/02/22-rdf-syntax-ns#">
      <rdf:Description rdf:about=""/>
   </rdf:RDF>
</x:xmpmeta>
                                                                                                    
                                                                                                    
                                                                                                    
                                                                                                    
                                                                                                    
                                                                                                    
                                                                                                    
                                                                                                    
                                                                                                    
                                                                                                    
                                                                                                    
                                                                                                    
                                                                                                    
                                                                                                    
                                                                                                    
                                                                                                    
                                                                                                    
                                                                                                    
                                                                                                    
                                                                                                    
                           
<?xpacket end="w"?></metadata>
<defs>
    <style>
      .cls-1 {
        fill: #fff;
        fill-rule: evenodd;
      }
    </style>
  </defs>
  <g id="white-ca-icon">
    <path id="Rounded_Rectangle_11" data-name="Rounded Rectangle 11" class="cls-1" d="M765.56,139.139h26.88a14.4,14.4,0,0,1,14.4,14.4v25.919a14.4,14.4,0,0,1-14.4,14.4H765.56a14.4,14.4,0,0,1-14.4-14.4V153.54A14.4,14.4,0,0,1,765.56,139.139Zm33.6,33.6h-8.64a1.92,1.92,0,0,1-1.92-1.919v-8.64a1.921,1.921,0,0,1,1.92-1.921h8.64a1.921,1.921,0,0,1,1.92,1.921v8.64A1.92,1.92,0,0,1,799.16,172.739Zm0-14.4h-8.64a1.92,1.92,0,0,1-1.92-1.92v-8.64a1.92,1.92,0,0,1,1.92-1.92h8.64a1.92,1.92,0,0,1,1.92,1.92v8.64A1.92,1.92,0,0,1,799.16,158.34Zm-14.4,28.8h-8.64a1.92,1.92,0,0,1-1.92-1.92v-8.641a1.92,1.92,0,0,1,1.92-1.919h8.64a1.92,1.92,0,0,1,1.92,1.919v8.641A1.92,1.92,0,0,1,784.76,187.14Zm0-14.4h-8.64a1.92,1.92,0,0,1-1.92-1.919v-8.64a1.921,1.921,0,0,1,1.92-1.921h8.64a1.921,1.921,0,0,1,1.92,1.921v8.64A1.92,1.92,0,0,1,784.76,172.739Zm0-14.4h-8.64a1.92,1.92,0,0,1-1.92-1.92v-8.64a1.92,1.92,0,0,1,1.92-1.92h8.64a1.92,1.92,0,0,1,1.92,1.92v8.64A1.92,1.92,0,0,1,784.76,158.34Zm-14.4,28.8h-8.64a1.92,1.92,0,0,1-1.92-1.92v-8.641a1.92,1.92,0,0,1,1.92-1.919h8.64a1.92,1.92,0,0,1,1.92,1.919v8.641A1.92,1.92,0,0,1,770.36,187.14Zm0-14.4h-8.64a1.92,1.92,0,0,1-1.92-1.919v-8.64a1.921,1.921,0,0,1,1.92-1.921h8.64a1.921,1.921,0,0,1,1.92,1.921v8.64A1.92,1.92,0,0,1,770.36,172.739Zm0-14.4h-8.64a1.92,1.92,0,0,1-1.92-1.92v-8.64a1.92,1.92,0,0,1,1.92-1.92h8.64a1.92,1.92,0,0,1,1.92,1.92v8.64A1.92,1.92,0,0,1,770.36,158.34Z" transform="translate(-745 -132)"/>
  </g>
</svg>
