<svg xmlns="http://www.w3.org/2000/svg" width="204" height="213" viewBox="0 0 68 71">
  <metadata><?xpacket begin="﻿" id="W5M0MpCehiHzreSzNTczkc9d"?>
<x:xmpmeta xmlns:x="adobe:ns:meta/" x:xmptk="Adobe XMP Core 5.6-c138 79.159824, 2016/09/14-01:09:01        ">
   <rdf:RDF xmlns:rdf="http://www.w3.org/1999/02/22-rdf-syntax-ns#">
      <rdf:Description rdf:about=""/>
   </rdf:RDF>
</x:xmpmeta>
                                                                                                    
                                                                                                    
                                                                                                    
                                                                                                    
                                                                                                    
                                                                                                    
                                                                                                    
                                                                                                    
                                                                                                    
                                                                                                    
                                                                                                    
                                                                                                    
                                                                                                    
                                                                                                    
                                                                                                    
                                                                                                    
                                                                                                    
                                                                                                    
                                                                                                    
                                                                                                    
                           
<?xpacket end="w"?></metadata>
<defs>
    <style>
      .cls-1 {
        fill: #4ec1ea;
        fill-rule: evenodd;
      }
    </style>
  </defs>
  <g id="blue-CA-icon">
    <path id="Rounded_Rectangle_11" data-name="Rounded Rectangle 11" class="cls-1" d="M853.56,413.14h26.88a14.4,14.4,0,0,1,14.4,14.4v25.92a14.4,14.4,0,0,1-14.4,14.4H853.56a14.4,14.4,0,0,1-14.4-14.4V427.54A14.4,14.4,0,0,1,853.56,413.14Zm-3.84,6.719h8.64a1.921,1.921,0,0,1,1.92,1.921v8.64a1.921,1.921,0,0,1-1.92,1.92h-8.64a1.921,1.921,0,0,1-1.92-1.92v-8.64A1.921,1.921,0,0,1,849.72,419.859Zm14.4,0h8.64a1.921,1.921,0,0,1,1.92,1.921v8.64a1.921,1.921,0,0,1-1.92,1.92h-8.64a1.921,1.921,0,0,1-1.92-1.92v-8.64A1.921,1.921,0,0,1,864.12,419.859Zm14.4,0h8.64a1.921,1.921,0,0,1,1.92,1.921v8.64a1.921,1.921,0,0,1-1.92,1.92h-8.64a1.921,1.921,0,0,1-1.92-1.92v-8.64A1.921,1.921,0,0,1,878.52,419.859Zm-28.8,14.4h8.64a1.921,1.921,0,0,1,1.92,1.921v8.639a1.921,1.921,0,0,1-1.92,1.921h-8.64a1.921,1.921,0,0,1-1.92-1.921V436.18A1.921,1.921,0,0,1,849.72,434.259Zm14.4,0h8.64a1.921,1.921,0,0,1,1.92,1.921v8.639a1.921,1.921,0,0,1-1.92,1.921h-8.64a1.921,1.921,0,0,1-1.92-1.921V436.18A1.921,1.921,0,0,1,864.12,434.259Zm14.4,0h8.64a1.921,1.921,0,0,1,1.92,1.921v8.639a1.921,1.921,0,0,1-1.92,1.921h-8.64a1.921,1.921,0,0,1-1.92-1.921V436.18A1.921,1.921,0,0,1,878.52,434.259Zm-28.8,14.4h8.64a1.92,1.92,0,0,1,1.92,1.92v8.639a1.921,1.921,0,0,1-1.92,1.921h-8.64a1.921,1.921,0,0,1-1.92-1.921V450.58A1.92,1.92,0,0,1,849.72,448.66Zm14.4,0h8.64a1.92,1.92,0,0,1,1.92,1.92v8.639a1.921,1.921,0,0,1-1.92,1.921h-8.64a1.921,1.921,0,0,1-1.92-1.921V450.58A1.92,1.92,0,0,1,864.12,448.66Z" transform="translate(-833 -405)"/>
  </g>
</svg>
